<?xml version="1.0" encoding="utf-8"?>
<!-- Generator: Adobe Illustrator 27.7.0, SVG Export Plug-In . SVG Version: 6.00 Build 0)  -->
<svg version="1.1" id="Capa_1" xmlns="http://www.w3.org/2000/svg" xmlns:xlink="http://www.w3.org/1999/xlink" x="0px" y="0px"
	 viewBox="0 0 40 50" style="enable-background:new 0 0 40 50;" xml:space="preserve">
<style type="text/css">
	.st0{fill-rule:evenodd;clip-rule:evenodd;stroke:#000000;stroke-width:0.25;stroke-miterlimit:10;}
</style>
<path class="st0" d="M30.8,36.8c0.3,0,0.5-0.1,0.7-0.3c0.4-0.4,0.4-1,0-1.4l-4.7-4.7L26.4,30l0.3-0.4c1.3-1.8,2-3.9,2-6.1
	c0-5.7-4.6-10.3-10.2-10.3c-5.7,0-10.2,4.6-10.2,10.3s4.6,10.2,10.2,10.2c2.2,0,4.4-0.7,6.1-2l0.4-0.3l0.3,0.3l4.8,4.8
	C30.3,36.7,30.5,36.8,30.8,36.8z M18.5,31.7c-4.4,0-8-3.4-8.3-7.7l0,0v-0.6c0-4.6,3.7-8.3,8.3-8.3s8.3,3.7,8.3,8.3
	C26.7,28,23,31.7,18.5,31.7z"/>
</svg>
